Coordinates
version=1
nRows=16
nColumns=42
inDegrees=yes

Units are S.I. units (second, meters, Newtons, ...)
If the header above contains a line with 'inDegrees', this indicates whether rotational values are in degrees (yes) or radians (no).

endheader
time	pelvis_tilt	pelvis_list	pelvis_rotation	pelvis_tx	pelvis_ty	pelvis_tz	hip_flexion_r	hip_adduction_r	hip_rotation_r	knee_angle_r	knee_adduction_r	knee_angle_r_beta	ankle_angle_r	subtalar_angle_r	mtp_angle_r	hip_flexion_l	hip_adduction_l	hip_rotation_l	knee_angle_l	knee_adduction_l	knee_angle_l_beta	ankle_angle_l	subtalar_angle_l	mtp_angle_l	lumbar_extension	lumbar_bending	lumbar_rotation	arm_flex_r	arm_add_r	arm_rot_r	elbow_flex_r	pro_sup_r	wrist_flex_r	wrist_dev_r	arm_flex_l	arm_add_l	arm_rot_l	elbow_flex_l	pro_sup_l	wrist_flex_l	wrist_dev_l
      1.20000000	     14.53795649	      1.04357891	     -8.34442789	      0.35138445	      0.98186233	     -0.09656239	     -9.17814279	     -3.21030626	     -3.88704920	     63.72499244	     -3.66720930	      1.11221093	      3.11228966	     -4.87877563	     -7.57025557	     -2.74831990	      5.53522596	     -8.65657770	     18.16783908	      0.73357234	      0.31708861	      5.99141839	      5.26657268	     -7.57025557	    -31.97071616	     -1.89179908	      7.87415661	     -2.05537167	    -23.12605501	     -3.44260239	     72.60708482	     90.00000001	      0.00000000	      0.00000000	     -4.65445926	    -19.58516123	      4.16168718	     55.79048442	     90.00000001	      0.00000000	      0.00000000
      1.21000000	     14.36349587	      0.81296570	     -8.08482494	      0.36434079	      0.98389806	     -0.09667440	     -7.32763442	     -2.79379617	     -4.21029344	     63.80289410	     -3.87632771	      1.11357057	      4.21166427	     -5.00502793	     -7.56918908	     -3.94778909	      5.36544021	     -8.50402549	     17.16440766	      0.79674196	      0.29957543	      6.17090911	      5.59691886	     -7.56918908	    -31.82699849	     -1.43324858	      7.69439891	     -2.35332328	    -23.26273160	     -3.59624575	     72.67377772	     90.00000001	      0.00000000	      0.00000000	     -4.10829379	    -19.72017469	      3.98180899	     56.46031390	     90.00000001	      0.00000000	      0.00000000
      1.22000000	     14.56173891	      0.80303475	     -7.74410307	      0.37760722	      0.98620855	     -0.09698961	     -6.00420352	     -2.76264040	     -4.80454559	     63.36359733	     -4.04977771	      1.10590340	      5.47821979	     -4.34566419	     -7.56611102	     -5.78036496	      5.53050529	     -7.86662887	     15.59647389	      0.92687129	      0.27220982	      6.09306042	      5.98289371	     -7.56611102	    -32.01480359	     -1.19137240	      7.34202171	     -2.70013248	    -23.28688838	     -3.96489408	     72.81583024	     90.00000001	      0.00000000	      0.00000000	     -3.55957574	    -19.92198175	      3.81588580	     57.23399422	     90.00000001	      0.00000000	      0.00000000
      1.23000000	     14.34478510	      0.66648575	     -7.41230831	      0.39044341	      0.98760432	     -0.09716879	     -4.19632347	     -2.48154676	     -5.01032982	     62.77383828	     -3.95009899	      1.09561016	      6.42797490	     -4.42149445	     -7.56472773	     -6.93967637	      5.44004275	     -7.74207568	     14.49294470	      0.94703455	      0.25294960	      6.26998574	      6.55600576	     -7.56472773	    -31.81383708	     -0.80022512	      7.10598312	     -2.99965307	    -23.38093537	     -4.23056114	     72.86922626	     90.00000001	      0.00000000	      0.00000000	     -2.99335236	    -20.09676528	      3.64972984	     57.99170347	     90.00000001	      0.00000000	      0.00000000
      1.24000000	     14.36983238	      0.57142803	     -7.06257413	      0.40344632	      0.98907677	     -0.09737468	     -2.79152909	     -2.30940109	     -5.01650529	     61.74830436	     -3.58909042	      1.07771122	      7.15401757	     -4.50113054	     -7.56275291	     -8.44288224	      5.46951884	     -7.66334039	     13.19144284	      0.85223075	      0.23023411	      6.41984555	      7.45387738	     -7.56275291	    -31.84537927	     -0.47319890	      6.83098481	     -3.31297362	    -23.42491559	     -4.61088534	     72.96632440	     90.00000001	      0.00000000	      0.00000000	     -2.41449233	    -20.31142027	      3.55070370	     58.78500325	     90.00000001	      0.00000000	      0.00000000
      1.25000000	     14.21143904	      0.46859212	     -6.74205363	      0.41629656	      0.98992301	     -0.09741386	     -1.20017658	     -2.08171419	     -4.86770245	     60.54181249	     -3.14956262	      1.05665396	      7.74949443	     -4.82464508	     -7.56125714	     -9.66723325	      5.40303198	     -7.64175413	     12.06276468	      0.85690135	      0.21053496	      6.66436736	      8.29211194	     -7.56125714	    -31.68977279	     -0.15496703	      6.62193733	     -3.61990879	    -23.46805743	     -4.94178757	     73.02624893	     90.00000001	      0.00000000	      0.00000000	     -1.81978289	    -20.53537005	      3.46851164	     59.61013836	     90.00000001	      0.00000000	      0.00000000
      1.26000000	     14.13209352	      0.37240988	     -6.42844920	      0.42917041	      0.99055102	     -0.09737592	      0.21265688	     -1.86707494	     -4.45783398	     59.06311225	     -2.49656153	      1.03084578	      8.13234199	     -5.37377550	     -7.55981782	    -10.99413294	      5.35857225	     -7.57421663	     10.89514887	      0.83351705	      0.19015622	      6.96632296	      9.20101940	     -7.55981782	    -31.61451250	      0.12718159	      6.42528062	     -3.92543537	    -23.49033081	     -5.34100483	     73.08572491	     90.00000001	      0.00000000	      0.00000000	     -1.20110043	    -20.78193933	      3.44774049	     60.45845913	     90.00000001	      0.00000000	      0.00000000
      1.27000000	     14.21525096	      0.25255126	     -6.13990624	      0.44210451	      0.99112320	     -0.09721736	      1.32612973	     -1.65627531	     -3.74744292	     57.26413315	     -1.58630464	      0.99944767	      8.13158720	     -6.41082561	     -7.55799986	    -12.48968085	      5.28616301	     -7.58094556	      9.76181878	      0.83591132	      0.17037588	      7.25954779	     10.03957652	     -7.55799986	    -31.71641680	      0.38950701	      6.26704837	     -4.22794679	    -23.49505783	     -5.76726699	     73.18772492	     90.00000001	      0.00000000	      0.00000000	     -0.51311373	    -21.05240132	      3.53529604	     61.25242102	     90.00000001	      0.00000000	      0.00000000
      1.28000000	     13.96288524	      0.21177382	     -5.84050762	      0.45485463	      0.99074783	     -0.09710374	      2.85040746	     -1.49050721	     -3.25398040	     55.43734143	     -0.95019411	      0.96756414	      8.30511390	     -6.93242531	     -7.55697725	    -13.47617222	      5.30218523	     -7.49851265	      8.88826401	      0.69903616	      0.15512947	      7.69145411	     10.53074337	     -7.55697725	    -31.46228980	      0.60799639	      6.05917703	     -4.48226825	    -23.51068817	     -6.12445384	     73.17082350	     90.00000001	      0.00000000	      0.00000000	      0.13400948	    -21.32830388	      3.56719970	     62.07495679	     90.00000001	      0.00000000	      0.00000000
      1.29000000	     14.32819163	     -0.00448909	     -5.62938651	      0.46789725	      0.99114548	     -0.09647615	      3.39504442	     -1.18644616	     -1.97608314	     53.02136579	      0.33557642	      0.92539741	      7.57055706	     -9.19555331	     -7.55442390	    -15.34512421	      5.04648169	     -7.36302565	      7.70222890	      0.95984799	      0.13442925	      7.85201190	     11.03843436	     -7.55442390	    -31.85987258	      0.85182896	      6.09328664	     -4.84271645	    -23.48837040	     -6.64872443	     73.36295288	     90.00000001	      0.00000000	      0.00000000	      0.99746281	    -21.64571794	      3.88788089	     62.80094416	     90.00000001	      0.00000000	      0.00000000
      1.30000000	     14.27445258	     -0.08151777	     -5.37613900	      0.48065415	      0.99049418	     -0.09592346	      4.46730859	     -1.00558115	     -0.98464221	     50.64965016	      1.31836712	      0.88400316	      7.03595444	    -10.85740195	     -7.55076291	    -16.59061160	      4.90978649	     -7.00960159	      6.80333702	      1.12652611	      0.11874063	      8.27676163	     11.15685989	     -7.55076291	    -31.82467305	      1.00100780	      5.98570830	     -5.09319883	    -23.38712540	     -7.09738579	     73.35215336	     90.00000001	      0.00000000	      0.00000000	      1.80366577	    -21.95933904	      4.10053994	     63.54673318	     90.00000001	      0.00000000	      0.00000000
      1.31000000	     14.37480117	     -0.12347622	     -5.10518230	      0.49358836	      0.98970383	     -0.09532028	      5.25973594	     -0.91855483	     -0.39612503	     48.02995497	      1.98965762	      0.83828085	      6.81706917	    -11.58646116	     -7.54854745	    -17.97896917	      4.81499226	     -6.73590891	      5.96655886	      1.24165677	      0.10413610	      8.66301238	     11.46988095	     -7.54854745	    -31.93575973	      1.10150813	      5.87707193	     -5.39474777	    -23.27755733	     -7.59741188	     73.43590911	     90.00000001	      0.00000000	      0.00000000	      2.68310921	    -22.31844170	      4.45140963	     64.24178600	     90.00000001	      0.00000000	      0.00000000
      1.32000000	     14.26537201	     -0.04160508	     -4.80785574	      0.50631290	      0.98828499	     -0.09486968	      6.29197666	     -0.97346537	     -0.02608041	     45.37995332	      2.42596739	      0.79202960	      6.74693100	    -11.73999528	     -7.54729370	    -19.00401470	      4.82589042	     -6.42157591	      5.36692766	      1.33003859	      0.09367056	      9.31987214	     11.78849161	     -7.54729370	    -31.83480150	      1.11219525	      5.65063234	     -5.57370130	    -23.10395461	     -8.06676404	     73.34805165	     90.00000001	      0.00000000	      0.00000000	      3.54747844	    -22.63973817	      4.78444827	     64.92109159	     90.00000001	      0.00000000	      0.00000000
      1.33000000	     14.41698403	     -0.11936735	     -4.55333893	      0.51923682	      0.98705707	     -0.09408427	      6.83695085	     -0.79559489	      0.10994312	     42.32118776	      2.53406256	      0.73864407	      6.22287804	    -12.19562887	     -7.54540080	    -20.33961935	      4.66213256	     -6.23193371	      4.78075807	      1.44205760	      0.08343997	      9.69210925	     11.91584459	     -7.54540080	    -32.01801753	      1.21822095	      5.60471041	     -5.89166174	    -22.98082527	     -8.58660415	     73.48173960	     90.00000001	      0.00000000	      0.00000000	      4.53515424	    -22.98758490	      5.34190768	     65.47772014	     90.00000001	      0.00000000	      0.00000000
      1.34000000	     14.39477208	     -0.05409263	     -4.27924050	      0.53202801	      0.98526468	     -0.09327753	      7.57533080	     -0.79809662	     -0.05010797	     39.26842888	      2.47493373	      0.68536338	      5.79916561	    -11.94738209	     -7.54346851	    -21.37179439	      4.60098787	     -5.98561376	      4.39312594	      1.56813489	      0.07667451	     10.24917911	     12.04678112	     -7.54346851	    -32.01511048	      1.18121492	      5.46116982	     -6.15416933	    -22.77480965	     -9.05567119	     73.47444212	     90.00000001	      0.00000000	      0.00000000	      5.54646332	    -23.34965398	      5.86522693	     66.00029020	     90.00000001	      0.00000000	      0.00000000
      1.35000000	     14.28703510	      0.11340259	     -4.02307337	      0.54471229	      0.98311841	     -0.09252286	      8.37779355	     -0.91932227	     -0.50685831	     36.15643178	      2.20555329	      0.63104878	      5.42999617	    -11.10239192	     -7.54217536	    -22.21313107	      4.65195050	     -5.70857561	      4.17838315	      1.64790876	      0.07292654	     10.94275726	     12.25400305	     -7.54217536	    -31.93309683	      1.05435264	      5.27662114	     -6.34587511	    -22.54556936	     -9.52624161	     73.38790616	     90.00000001	      0.00000000	      0.00000000	      6.57723747	    -23.68282458	      6.45768918	     66.45245941	     90.00000001	      0.00000000	      0.00000000
